<svg width="26" height="26" viewBox="0 0 26 26" fill="none" xmlns="http://www.w3.org/2000/svg">
<path d="M3.66169 14.5369L8.58362 17.3034L5.27844 22.8773L5.27837 22.8772L5.27381 22.8853C5.05532 23.2697 4.99994 23.7241 5.12118 24.1493C5.24232 24.5742 5.52871 24.9318 5.91402 25.1485C6.29894 25.365 6.75405 25.425 7.18246 25.3173C7.61109 25.2096 7.983 24.9414 8.21524 24.5657L8.21531 24.5658L8.22001 24.5579L11.537 18.9651L16.4787 21.7422C16.4787 21.7422 16.4787 21.7422 16.4788 21.7422C16.7106 21.8725 16.9725 21.9407 17.2385 21.9407C17.5044 21.9407 17.7664 21.8726 17.9983 21.7423L17.7533 21.3064L17.9983 21.7423C18.2302 21.6119 18.4245 21.4235 18.5602 21.1946C18.6961 20.9656 18.7682 20.7047 18.7683 20.4384V20.4382V13.7332C18.7683 12.1264 19.6476 10.6357 21.0874 9.82663C21.0874 9.82662 21.0874 9.82662 21.0874 9.82661L22.337 9.12459C22.3371 9.12452 22.3373 9.12444 22.3374 9.12436C22.3374 9.12435 22.3375 9.12434 22.3375 9.12433C22.5697 8.99408 22.7643 8.80562 22.9003 8.5766C23.0364 8.34732 23.1087 8.08607 23.1087 7.81932C23.1087 7.55257 23.0364 7.29132 22.9003 7.06204C22.7643 6.833 22.5697 6.64453 22.3374 6.51427C22.3373 6.5142 22.3371 6.51412 22.337 6.51405L14.2342 1.9592L14.234 1.95908C14.0021 1.82889 13.7402 1.76085 13.4742 1.76087C13.2083 1.76089 12.9463 1.82896 12.7145 1.95919C12.4826 2.08946 12.2882 2.27778 12.1523 2.50655C12.0164 2.73542 11.944 2.99616 11.9436 3.26246V3.26317V4.66777V4.66789C11.9438 5.45768 11.7305 6.23439 11.3241 6.92003C10.9175 7.60578 10.3318 8.17682 9.6244 8.57443L9.62429 8.57449L3.66169 11.9278C3.42959 12.0582 3.23518 12.2467 3.09933 12.4757C2.96341 12.7049 2.8913 12.9659 2.8913 13.2324C2.8913 13.4989 2.96341 13.7599 3.09933 13.989C3.23516 14.218 3.42951 14.4065 3.66155 14.5368C3.66159 14.5369 3.66164 14.5369 3.66169 14.5369Z" fill="#11B7E4" stroke="white"/>
</svg>
