<svg width="22" height="21" viewBox="0 0 22 21" fill="none" xmlns="http://www.w3.org/2000/svg">
<g id="icon-plus-mono">
<path id="Vector" fill-rule="evenodd" clip-rule="evenodd" d="M18.6248 9.45H12.2082V3.325C12.2082 3.04652 12.0923 2.77945 11.886 2.58254C11.6797 2.38563 11.3999 2.275 11.1082 2.275C10.8164 2.275 10.5366 2.38563 10.3303 2.58254C10.1241 2.77945 10.0082 3.04652 10.0082 3.325V9.45H3.5915C3.29976 9.45 3.01997 9.56063 2.81368 9.75754C2.60739 9.95445 2.4915 10.2215 2.4915 10.5C2.4915 10.7785 2.60739 11.0456 2.81368 11.2425C3.01997 11.4394 3.29976 11.55 3.5915 11.55H10.0082V17.675C10.0082 17.9535 10.1241 18.2206 10.3303 18.4175C10.5366 18.6144 10.8164 18.725 11.1082 18.725C11.3999 18.725 11.6797 18.6144 11.886 18.4175C12.0923 18.2206 12.2082 17.9535 12.2082 17.675V11.55H18.6248C18.9166 11.55 19.1964 11.4394 19.4027 11.2425C19.6089 11.0456 19.7248 10.7785 19.7248 10.5C19.7248 10.2215 19.6089 9.95445 19.4027 9.75754C19.1964 9.56063 18.9166 9.45 18.6248 9.45Z" fill="white"/>
</g>
</svg>
